<?xml version="1.0" encoding="utf-8"?>
<!-- Generator: Adobe Illustrator 28.1.0, SVG Export Plug-In . SVG Version: 6.00 Build 0)  -->
<svg version="1.1" id="图层_1" xmlns="http://www.w3.org/2000/svg" xmlns:xlink="http://www.w3.org/1999/xlink" x="0px" y="0px"
	 viewBox="0 0 70 70" style="enable-background:new 0 0 70 70;" xml:space="preserve">
<style type="text/css">
	.st0{fill:#BACCDA;}
	.st1{fill:#AC7ACF;}
</style>
<g>
	<path class="st0" d="M36.2,37.9c0.1-1.9,1-3.6,2.4-4.7c1.4-1.2,3.2-1.9,5.2-1.9c2,0,3.9,0.7,5.2,1.9c1.4,1.2,2.3,2.8,2.4,4.7
		c0.1,1.9-0.7,3.7-2,5.1c-1.4,1.4-3.4,2.2-5.6,2.2s-4.2-0.9-5.6-2.2C36.9,41.6,36.1,39.8,36.2,37.9z"/>
	<path class="st1" d="M24,41.7c0,0.7,0.2,2.2,0.6,3.3c0.7,2.4,2,4.6,3.8,6.5c1.8,2,4,3.6,6.6,4.7c2.7,1.2,5.6,1.8,8.6,1.8
		c3,0,5.9-0.6,8.6-1.8c2.6-1.1,4.8-2.8,6.6-4.7c1.8-1.9,3-4.1,3.8-6.5c0.4-1.2,0.6-2.4,0.7-3.6c0.1-1.2,0.1-2.4-0.1-3.6
		c-0.3-2.3-1.1-4.6-2.4-6.6c-1.2-1.9-2.6-3.5-4.4-4.8l0,0L38.7,12.7c0,0,0,0,0,0c-1.2-0.9-3.1-0.9-4.4,0C33,13.5,32.8,15,34,16l0,0
		l7.4,6l-22.5,0h0c-1.9,0-3.7,1.2-4,2.8c-0.4,1.6,0.9,2.9,2.8,2.9l0,0l11.4,0L8.7,43.3l-0.1,0.1c-1.9,1.5-2.5,3.9-1.3,5.5
		c1.2,1.6,3.8,1.6,5.8,0l11.1-9.1C24.2,39.7,24,41,24,41.7z M52.6,45.8c-2.3,2.3-5.5,3.7-9,3.7c-3.5,0-6.7-1.3-9-3.6
		c-1.1-1.1-1.9-2.4-2.4-3.8c-0.5-1.4-0.7-2.8-0.6-4.3c0.1-1.4,0.5-2.8,1.2-4c0.7-1.2,1.6-2.3,2.7-3.2c2.2-1.8,5.1-2.8,8-2.8
		c3,0,5.8,1,8,2.8c1.1,0.9,2,2,2.7,3.2c0.7,1.2,1.1,2.6,1.2,4c0.1,1.5-0.1,2.9-0.6,4.3C54.5,43.4,53.7,44.7,52.6,45.8z"/>
</g>
</svg>
