<?xml version="1.0" encoding="utf-8"?>
<!-- Generator: Adobe Illustrator 28.1.0, SVG Export Plug-In . SVG Version: 6.00 Build 0)  -->
<svg version="1.1" id="图层_1" xmlns="http://www.w3.org/2000/svg" xmlns:xlink="http://www.w3.org/1999/xlink" x="0px" y="0px"
	 viewBox="0 0 198 58" style="enable-background:new 0 0 198 58;" xml:space="preserve">
<style type="text/css">
	.st0{fill:#FEFEFE;}
	.st1{fill:#BACCDA;}
	.st2{fill:#AC7ACF;}
	.st3{fill:#705BAF;}
</style>
<path class="st0" d="M180.5,16.3H59.9c-0.1-0.1-0.1-0.1-0.2-0.2c0,0-17.7-13.6-18.3-14.1l-0.1,0c-2.8-2.2-7.1-2.2-10.1-0.1
	c-1.9,1.3-3,3.3-3.1,5.4c0,0.1,0,0.2,0,0.3c0,1.1,0.3,2.2,0.8,3.1l-11,0c-4.1,0-7.8,2.8-8.7,6.5c-0.1,0.5-0.2,1.1-0.2,1.6
	c0,1.5,0.5,3,1.5,4.3c1.1,1.4,2.7,2.3,4.5,2.7l-10.4,8c0,0-0.1,0.1-0.1,0.1c-2.1,1.6-3.5,3.9-3.8,6.3c0,0.4-0.1,0.7-0.1,1.1
	c0,1.8,0.6,3.4,1.6,4.8c1.3,1.7,3.2,2.7,5.4,3c2.5,0.3,5.1-0.5,7.2-2.2c0,0,2.6-2.1,5.3-4.3c1,2.4,2.4,4.7,4.2,6.6
	c2.3,2.6,5.1,4.6,8.4,6c3.4,1.5,7,2.3,10.8,2.3c3.8,0,7.4-0.8,10.8-2.3c3.2-1.4,6-3.5,8.4-6c0.3-0.4,0.7-0.8,1-1.2h116.8
	c9.2,0,16.7-7.1,16.7-15.7C197.2,23.3,189.7,16.3,180.5,16.3z"/>
<path class="st1" d="M36.1,31.3c0.1-1.9,1-3.6,2.4-4.7c1.4-1.2,3.2-1.9,5.2-1.9c2,0,3.9,0.7,5.2,1.9c1.4,1.2,2.3,2.8,2.4,4.7
	c0.1,1.9-0.7,3.7-2,5.1c-1.4,1.4-3.4,2.2-5.6,2.2s-4.2-0.9-5.6-2.2C36.8,35,36,33.2,36.1,31.3z"/>
<path class="st2" d="M23.9,35.1c0,0.7,0.2,2.2,0.6,3.3c0.7,2.4,2,4.6,3.8,6.5c1.8,2,4,3.6,6.6,4.7c2.7,1.2,5.6,1.8,8.6,1.8
	c3,0,5.9-0.6,8.6-1.8c2.6-1.1,4.8-2.8,6.6-4.7c1.8-1.9,3-4.1,3.8-6.5c0.4-1.2,0.6-2.4,0.7-3.6c0.1-1.2,0.1-2.4-0.1-3.6
	c-0.3-2.3-1.1-4.6-2.4-6.6c-1.2-1.9-2.6-3.5-4.4-4.8l0,0L38.6,6.1c0,0,0,0,0,0c-1.2-0.9-3.1-0.9-4.4,0c-1.3,0.9-1.4,2.4-0.3,3.3l0,0
	l7.4,6l-22.5,0h0c-1.9,0-3.6,1.2-4,2.8c-0.4,1.6,0.9,2.9,2.8,2.9l0,0l11.4,0L8.6,36.7l-0.1,0.1c-1.9,1.5-2.5,3.9-1.3,5.5
	c1.2,1.6,3.8,1.6,5.8,0l11.1-9.1C24.1,33.1,23.9,34.4,23.9,35.1z M52.5,39.2c-2.3,2.3-5.5,3.7-9,3.7c-3.5,0-6.7-1.3-9-3.6
	c-1.1-1.1-1.9-2.4-2.4-3.8c-0.5-1.4-0.7-2.8-0.6-4.3c0.1-1.4,0.5-2.8,1.2-4c0.7-1.2,1.6-2.3,2.7-3.2c2.2-1.8,5.1-2.8,8-2.8
	c3,0,5.8,1,8,2.8c1.1,0.9,2,2,2.7,3.2c0.7,1.2,1.1,2.6,1.2,4c0.1,1.5-0.1,2.9-0.6,4.3C54.4,36.8,53.6,38.1,52.5,39.2z"/>
<path class="st3" d="M157.5,31.3c0.2-1.9,1.6-3.1,3.9-3.1c2.3,0,3.7,1.2,3.9,3.1H157.5z M165,36c-0.6,1.4-1.9,2.3-3.8,2.3
	c-2.3,0-3.9-1.4-3.9-3.7h13.3v-0.7c0-5.7-3.4-8.9-9.4-8.9c-5.8,0-9.4,3.2-9.4,8.3c0,5.1,3.6,8.3,9.4,8.3c3.5,0,6.2-1.2,7.8-3.3
	L165,36z M98.5,31.3c0.2-1.9,1.7-3.1,3.9-3.1c2.3,0,3.7,1.2,3.9,3.1H98.5z M106,36c-0.6,1.4-1.9,2.3-3.8,2.3c-2.3,0-3.9-1.4-3.9-3.7
	h13.3v-0.7c0-5.7-3.4-8.9-9.4-8.9c-5.8,0-9.4,3.2-9.4,8.3c0,5.1,3.6,8.4,9.4,8.4c3.5,0,6.2-1.2,7.8-3.3C110.1,38.3,106,36,106,36z
	 M86.9,21.4h4.8v19.6h-4.8V21.4z M112.8,26.7h4.8v1.2c1.7-1.8,3.8-2.7,6.1-2.7c2.7,0,4.7,0.9,5.7,2.5c0.9,1.3,0.9,2.9,0.9,4.9v8.6
	h-4.8v-7.5c0-3.1-0.6-4.6-3.4-4.6c-2.8,0-4.5,1.7-4.5,4.4v7.7h-4.8L112.8,26.7L112.8,26.7z M145.9,33.5c0,2.7-1.8,4.4-4.6,4.4
	c-2.8,0-4.6-1.7-4.6-4.4c0-2.8,1.8-4.5,4.6-4.5C144.1,29,145.9,30.8,145.9,33.5z M145.9,27.3c-1.2-1.3-3-2-5.4-2
	c-5.3,0-8.9,3.3-8.9,8.2c0,4.8,3.6,8.1,8.8,8.1c2.4,0,4.2-0.6,5.5-2v1.4h4.8V20.2l-4.8,1.2C145.9,21.4,145.9,27.3,145.9,27.3z
	 M75.9,29c2.8,0,4.6,1.7,4.6,4.5c0,2.7-1.8,4.4-4.6,4.4c-2.8,0-4.6-1.8-4.6-4.4C71.4,30.8,73.2,29,75.9,29z M71.4,21.4l-4.8-1.2
	v20.9h4.8v-1.4c1.4,1.4,3.1,2,5.5,2c5.2,0,8.8-3.4,8.8-8.1c0-4.9-3.6-8.2-8.9-8.2c-2.5,0-4.2,0.7-5.4,2
	C71.4,27.3,71.4,21.4,71.4,21.4z M171.8,41.1V26.7h4.8v0.9c1.4-1.7,3-2.6,4.7-2.6c0.3,0,0.8,0.1,1.4,0.1v4.1c-0.5-0.1-1-0.1-1.5-0.1
	c-2.8,0-4.5,1.9-4.5,5v7H171.8z M189,25h-0.4l0-1.3l0-0.4l-0.1,0.4l-0.4,1.4h-0.3l-0.4-1.4l-0.1-0.4l0,0.4l0,1.3h-0.4v-2.1h0.5
	l0.5,1.7l0.5-1.7h0.5L189,25L189,25z M186,25h-0.4v-1.8H185v-0.3h1.7v0.3H186L186,25L186,25z"/>
</svg>
