<svg t="1716821226976" class="icon" viewBox="0 0 1025 1024" version="1.1" xmlns="http://www.w3.org/2000/svg" p-id="10277" width="200" height="200"><path d="M708.818873 56.782273c78.400176 0 141.955683 63.61195 141.955683 142.012127 0 37.704332-14.675339 71.965605-38.663874 97.421673l44.816228 77.553522c8.861647-1.693308 17.836181-2.539963 26.810715-2.539962 78.400176 0 141.955683 63.61195 141.955683 142.012126s-63.555507 142.012127-141.955683 142.012127c-4.459045 0-8.918091-0.225774-13.264248-0.62088l-48.767281 84.383199c18.231287 23.875648 29.06846 53.734318 29.06846 86.132952 0 78.45662-63.555507 142.012127-141.955683 142.012126-56.669386 0-105.549554-33.245287-128.352772-81.2788H467.070885c-22.746775 48.033513-71.683387 81.278801-128.352772 81.2788-78.400176 0-141.955683-63.61195-141.955683-142.012126 0-35.78525 13.207805-68.409657 34.995039-93.414177l-47.638408-82.407673c-12.869143 3.838166-26.528497 5.926579-40.639401 5.926579-78.400176 0-141.955683-63.61195-141.955682-142.012127 0-78.45662 63.555507-142.012127 141.955682-142.012126 18.682835 0 36.519017 3.612391 52.831221 10.15985l45.493551-78.795282a141.532356 141.532356 0 0 1-45.098446-103.856245c0-78.45662 63.555507-142.012127 141.955683-142.012126 67.111454 0 123.329291 46.565979 138.117517 109.161944h93.809283c14.901113-62.539522 71.118951-109.105501 138.230404-109.105501z m0 692.337339c-41.994047 0-76.029545 34.091941-76.029544 76.085988s34.035498 76.085988 76.029544 76.085989 76.029545-34.035498 76.029545-76.085989c0-41.994047-34.035498-76.085988-76.029545-76.085988z m-370.044317 0c-41.994047 0-76.029545 34.091941-76.029544 76.085988s34.035498 76.085988 76.029544 76.085989 76.029545-34.035498 76.029545-76.085989c0-41.994047-34.035498-76.085988-76.029545-76.085988z m143.818322-108.428178l-52.323227 75.973101a141.617021 141.617021 0 0 1 50.291257 103.404697h86.358726c1.41109-39.22831 18.682835-74.449124 45.662882-99.284313l-46.904641-76.989086c-11.966046 3.44306-24.38364 5.192812-36.914122 5.192812-16.199317-0.056444-31.777753-2.935068-46.170875-8.297211z m263.704553-91.720868l-88.61647 0.451548a133.229501 133.229501 0 0 1-35.107926 60.959101l47.581964 78.174402c12.586925-3.555948 25.568956-5.362143 38.663874-5.3057 21.843678 0 42.558483 4.967038 61.071988 13.772242l37.083453-64.176387c-29.576452-19.134384-51.645905-48.880168-60.676883-83.875206z m-345.942895 1.693308l-119.999118 0.564436a141.605733 141.605733 0 0 1-39.171866 65.135928l44.534009 77.101973c16.368647-6.603903 34.261272-10.216294 52.944108-10.216294 11.006504 0 21.73079 1.241759 32.059971 3.612391l57.628928-83.649432a135.159872 135.159872 0 0 1-27.996032-52.549002z m-256.761988-113.451659c-41.994047 0-76.029545 34.091941-76.029545 76.085988s34.035498 76.085988 76.029545 76.085988 76.029545-34.035498 76.029544-76.085988-34.035498-76.085988-76.029544-76.085988z m740.088634 0c-41.994047 0-76.029545 34.091941-76.029545 76.085988s34.035498 76.085988 76.029545 76.085988 76.029545-34.035498 76.029544-76.085988-34.035498-76.085988-76.029544-76.085988zM299.207585 335.218609l-48.823724 84.496086a140.996142 140.996142 0 0 1 32.342189 65.531033l116.668945-0.564436c5.531474-23.028993 16.989527-43.687355 32.680851-60.338221l-54.185867-89.011575c-12.417595 3.555948-25.568956 5.47503-39.171866 5.47503-13.715798 0-26.980046-1.919083-39.510528-5.587917z m457.644802-2.765737c-15.014001 5.418587-31.213317 8.353655-48.089957 8.353654-6.378128 0-12.643369-0.395105-18.795723-1.241759l-61.015544 88.560026a132.981149 132.981149 0 0 1 28.955573 55.31474l87.036049-0.395106c7.168339-33.075956 25.851174-61.805755 51.589461-81.89968l-39.679859-68.691875z m-186.151031-100.63896H476.83563a141.983905 141.983905 0 0 1-41.486054 71.006064l52.492558 86.245838c12.925587-4.176827 26.697828-6.434572 40.978062-6.434572 16.142873 0 31.551979 2.878624 45.832213 8.12788l52.266784-75.916657c-27.65737-19.585933-48.089957-48.936611-56.217837-83.028553zM338.774556 122.708411c-41.994047 0-76.029545 34.035498-76.029544 76.085989 0 41.994047 34.035498 76.085988 76.029544 76.085988s76.029545-34.091941 76.029545-76.085988-34.035498-76.085988-76.029545-76.085989z m370.044317 0c-41.994047 0-76.029545 34.035498-76.029544 76.085989 0 41.994047 34.035498 76.085988 76.029544 76.085988s76.029545-34.091941 76.029545-76.085988-34.035498-76.085988-76.029545-76.085989z" p-id="10278"></path></svg>