<svg t="1717056760168" class="icon" viewBox="0 0 1024 1024" version="1.1" xmlns="http://www.w3.org/2000/svg" p-id="2691" width="200" height="200"><path d="M958.976 891.904L785.92 718.848c-10.24-10.24-24.064-15.36-37.888-14.848l-43.008-43.52c56.32-65.536 90.624-150.016 90.624-243.2 0-205.824-167.424-372.736-372.736-372.736S50.176 211.968 50.176 417.28 217.6 790.016 422.912 790.016c87.552 0 167.936-30.208 231.936-81.408l44.032 44.032c-0.512 13.824 4.608 27.648 14.848 37.888l173.056 173.056c10.24 10.24 23.04 14.848 36.352 14.848 13.312 0 26.112-5.12 36.352-14.848 19.456-19.456 19.456-51.712-0.512-71.68zM422.912 709.12c-160.768 0-291.84-131.072-291.84-291.84s131.072-291.84 291.84-291.84 291.84 131.072 291.84 291.84c0 161.28-131.072 291.84-291.84 291.84z" p-id="2692" fill="#b4b4b4"></path></svg>